<svg id="ロゴ" xmlns="http://www.w3.org/2000/svg" viewBox="0 0 155.19 61.02"><defs><style>.cls-1{fill:#02669b;}.cls-2{fill:#179440;}</style></defs><polygon points="48.08 44.09 47.03 44.09 47.03 40.4 43.36 40.4 43.36 44.09 42.33 44.09 42.33 36.26 43.36 36.26 43.36 39.46 47.03 39.46 47.03 36.26 48.08 36.26 48.08 44.09 48.08 44.09"/><path d="M51.93,44.22a3.66,3.66,0,0,1-1.09-.14,2.68,2.68,0,0,1-.85-.4,1.89,1.89,0,0,1-.54-.59,2.88,2.88,0,0,1-.3-.72,4.07,4.07,0,0,1-.12-.79c0-.27,0-.54,0-.8V36.26h1v4.51a5,5,0,0,0,.14,1.28,1.92,1.92,0,0,0,.39.77,1.4,1.4,0,0,0,.65.37,2.64,2.64,0,0,0,1.44,0,1.28,1.28,0,0,0,.63-.38,1.8,1.8,0,0,0,.39-.77,4.9,4.9,0,0,0,.14-1.27V36.26h1v4.52a7,7,0,0,1-.14,1.45,2.55,2.55,0,0,1-.48,1.08,2.23,2.23,0,0,1-.95.68,3.41,3.41,0,0,1-1.35.23Z"/><path d="M59.56,40.74H56.81v3.35h-1V36.26h4a1.91,1.91,0,0,1,1.92,2.11c0,1.46-.93,1.75-.93,1.75a1.39,1.39,0,0,1,.84,1.06c.1.79.12,1.94.15,2.39s.21.52.21.52h-1.1s-.14-.06-.18-.48a9.24,9.24,0,0,0-.21-2.37c-.16-.41-.42-.5-.88-.5Zm-2.75-1h2a2.53,2.53,0,0,0,1.4-.3,1.12,1.12,0,0,0,.43-1c0-.88-.56-1.27-1.68-1.27H56.81v2.58Z"/><polygon points="63.62 44.09 62.58 44.09 62.58 36.26 63.62 36.26 63.62 44.09 63.62 44.09"/><path d="M67.68,44.22a2.92,2.92,0,0,1-1.3-.29,3.43,3.43,0,0,1-1.19-.82,3.65,3.65,0,0,1-.77-1.28,4.86,4.86,0,0,1-.27-1.66,4.68,4.68,0,0,1,.28-1.67,3.65,3.65,0,0,1,.77-1.28,3.27,3.27,0,0,1,1.18-.81,3.23,3.23,0,0,1,1.37-.28,3.82,3.82,0,0,1,1.2.18,3.19,3.19,0,0,1,1,.5,2.74,2.74,0,0,1,.73.79,2.59,2.59,0,0,1,.33,1H70a1.52,1.52,0,0,0-.68-1.19A2.56,2.56,0,0,0,67.76,37a2.09,2.09,0,0,0-.94.2,2.46,2.46,0,0,0-.85.61,2.79,2.79,0,0,0-.55,1,4.24,4.24,0,0,0-.2,1.34,4.18,4.18,0,0,0,.2,1.33,2.79,2.79,0,0,0,.55,1,2.34,2.34,0,0,0,.86.63,1.71,1.71,0,0,0,.85.22,3.16,3.16,0,0,0,2.51-1.41v-1.1H68v-.94H71.2v4.2h-.74V42.73l-.27.38a3.16,3.16,0,0,1-2.51,1.11Z"/><polygon points="77.65 44.09 76.61 44.09 76.61 40.4 72.94 40.4 72.94 44.09 71.9 44.09 71.9 36.26 72.94 36.26 72.94 39.46 76.61 39.46 76.61 36.26 77.65 36.26 77.65 44.09 77.65 44.09"/><polygon points="83.89 37.19 81.45 37.19 81.45 44.09 80.42 44.09 80.42 37.19 77.94 37.19 77.94 36.26 83.89 36.26 83.89 37.19 83.89 37.19"/><path d="M87,44.22A4.49,4.49,0,0,1,85.63,44a2.68,2.68,0,0,1-1-.55,2.1,2.1,0,0,1-.6-.84,2.84,2.84,0,0,1-.23-1.07h1a1.83,1.83,0,0,0,.23.77,1.59,1.59,0,0,0,.49.54,2,2,0,0,0,.68.31,3.07,3.07,0,0,0,.82.1,2.93,2.93,0,0,0,.76-.09,1.83,1.83,0,0,0,.6-.27,1.18,1.18,0,0,0,.38-.42,1.12,1.12,0,0,0,.14-.55,1.15,1.15,0,0,0-.12-.55,1.1,1.1,0,0,0-.41-.39,3.43,3.43,0,0,0-.73-.3q-.45-.13-1.11-.27a7.06,7.06,0,0,1-1.09-.34,2.88,2.88,0,0,1-.76-.45,1.55,1.55,0,0,1-.44-.59,2.09,2.09,0,0,1-.14-.78,1.79,1.79,0,0,1,.2-.86,2,2,0,0,1,.54-.69,2.56,2.56,0,0,1,.85-.45,3.48,3.48,0,0,1,1.1-.16,3.87,3.87,0,0,1,1.16.16,2.6,2.6,0,0,1,.91.46,2.13,2.13,0,0,1,.59.74,2.26,2.26,0,0,1,.24,1h-1c-.1-.94-.72-1.41-1.87-1.41a2.17,2.17,0,0,0-1.3.32,1,1,0,0,0-.46.87.93.93,0,0,0,.09.42.82.82,0,0,0,.28.31,2.11,2.11,0,0,0,.54.24,6.45,6.45,0,0,0,.83.22c.34.08.65.15.91.23s.5.15.7.23a4.07,4.07,0,0,1,.55.28,2.25,2.25,0,0,1,.46.41,2,2,0,0,1,.32.56,2,2,0,0,1,.12.71,2,2,0,0,1-.22,1,2.1,2.1,0,0,1-.58.74,2.73,2.73,0,0,1-.89.49,3.67,3.67,0,0,1-1.13.17Z"/><path d="M102.42,44.22A4.49,4.49,0,0,1,101,44a2.68,2.68,0,0,1-1-.55,2.1,2.1,0,0,1-.6-.84,2.84,2.84,0,0,1-.23-1.07h1a1.83,1.83,0,0,0,.23.77,1.67,1.67,0,0,0,.48.54,2.17,2.17,0,0,0,.69.31,3.38,3.38,0,0,0,1.59,0,1.88,1.88,0,0,0,.59-.27,1.18,1.18,0,0,0,.38-.42,1.12,1.12,0,0,0,.14-.55,1.15,1.15,0,0,0-.12-.55,1.1,1.1,0,0,0-.41-.39,3.43,3.43,0,0,0-.73-.3q-.45-.13-1.11-.27a7.06,7.06,0,0,1-1.09-.34,2.88,2.88,0,0,1-.76-.45,1.55,1.55,0,0,1-.44-.59,2.09,2.09,0,0,1-.14-.78,1.9,1.9,0,0,1,.19-.86,2.05,2.05,0,0,1,.55-.69,2.56,2.56,0,0,1,.85-.45,3.48,3.48,0,0,1,1.1-.16,3.87,3.87,0,0,1,1.16.16,2.6,2.6,0,0,1,.91.46,2.13,2.13,0,0,1,.59.74,2.41,2.41,0,0,1,.24,1h-1c-.09-.94-.72-1.41-1.87-1.41a2.19,2.19,0,0,0-1.3.32,1,1,0,0,0-.46.87.93.93,0,0,0,.09.42.82.82,0,0,0,.28.31,2.11,2.11,0,0,0,.54.24,6.45,6.45,0,0,0,.83.22c.34.08.64.15.91.23s.5.15.7.23a4.07,4.07,0,0,1,.55.28,2.55,2.55,0,0,1,.46.41,2,2,0,0,1,.32.56,2,2,0,0,1,.12.71,2.17,2.17,0,0,1-.22,1,2.1,2.1,0,0,1-.58.74,2.73,2.73,0,0,1-.89.49,3.72,3.72,0,0,1-1.13.17Z"/><path d="M95.49,36.13a3.43,3.43,0,0,1,1.44.29,3.23,3.23,0,0,1,1.14.82,3.82,3.82,0,0,1,.75,1.27,4.86,4.86,0,0,1,.27,1.66,5,5,0,0,1-.26,1.64,3.76,3.76,0,0,1-.75,1.28,3.38,3.38,0,0,1-1.14.84,3.61,3.61,0,0,1-1.45.29A3.66,3.66,0,0,1,94,43.93a3.32,3.32,0,0,1-1.14-.82,3.73,3.73,0,0,1-.74-1.29,4.8,4.8,0,0,1-.27-1.65,4.86,4.86,0,0,1,.27-1.66,3.76,3.76,0,0,1,.75-1.28A3.38,3.38,0,0,1,94,36.41a3.61,3.61,0,0,1,1.45-.28Zm0,7.21a2.58,2.58,0,0,0,1-.22,2.29,2.29,0,0,0,.82-.63,2.93,2.93,0,0,0,.53-1,4.18,4.18,0,0,0,.2-1.33,4.24,4.24,0,0,0-.2-1.34,2.89,2.89,0,0,0-.54-1,2.15,2.15,0,0,0-.81-.62,2.44,2.44,0,0,0-1-.2,2.53,2.53,0,0,0-1,.21,2.29,2.29,0,0,0-.83.62,3.17,3.17,0,0,0-.53,1,4.22,4.22,0,0,0-.2,1.33,4.49,4.49,0,0,0,.19,1.33,2.93,2.93,0,0,0,.53,1,2.38,2.38,0,0,0,.82.63,2.5,2.5,0,0,0,1,.22Z"/><path d="M111.75,44.09h-1.09l-.84-2.38h-3L106,44.09h-1l2.79-7.83h1l3,7.83Zm-2.21-3.21-1.29-3.62L107,40.88Z"/><path d="M124.08,44.09H123l-.84-2.38H119.1l-.81,2.38h-1l2.79-7.83h1l3,7.83Zm-2.22-3.21-1.28-3.62-1.22,3.62Z"/><path d="M42.33,18.92V31s.07,2,1.76,2H54.53V31.3H45.05s-.91.11-.91-1V18.92Z"/><path d="M55.43,33h13.2V31.3H55.43V33Z"/><path d="M67.78,26.83h14V25.15h-14v1.68Z"/><path d="M83.21,20.53H94.79V18.86H83.21v1.67Z"/><path d="M124.69,23H139V21.37H124.69V23Z"/><path d="M140.67,18.35V34h1.59V18.35Z"/><path d="M154.88,18.28h-7.95v1.59h7.95V18.28Z"/><path d="M104.48,33.11v-10h-1.67v10Z"/><path d="M66.1,21.16H57.17v1.68h7.12l-.71,9.48,1.67.12c.15-2,.85-11.28.85-11.28Z"/><path d="M43.92,24.17a29.1,29.1,0,0,0,10.66-1.42V21a29.1,29.1,0,0,1-10.66,1.42v1.74Z"/><path d="M95.51,22.71H82.46v1.67h11.2a7.62,7.62,0,0,1-1.91,4C90.11,30.17,87.52,31,84.09,31l0,1.74h.32c3.79,0,6.69-1,8.63-3.11a9.89,9.89,0,0,0,2.49-6.9Z"/><path d="M96.11,26a23.17,23.17,0,0,0,11-7.64h2.06c-.81,1.31-4.59,6.72-13,9.45V26Z"/><path d="M116.17,24.19a21.87,21.87,0,0,0-1.42-5.05h1.86a21.54,21.54,0,0,1,1.31,5.05Z"/><path d="M111.29,24.36a16.69,16.69,0,0,0-1.47-5.1h1.91a17.42,17.42,0,0,1,1.31,5.1Z"/><path d="M112.31,31.29c10-1.58,9.63-10.71,9.51-12.16h1.7c.11,2,.1,12.26-11.21,13.89V31.29Z"/><path d="M124.66,31.51A10.75,10.75,0,0,0,131,22.3V17.75h1.71V22.3a12.5,12.5,0,0,1-8,11.09V31.51Z"/><path d="M139,31.51a10.75,10.75,0,0,1-6.3-9.21V17.75H131V22.3a12.5,12.5,0,0,0,8,11.09V31.51Z"/><path d="M142,27s2.48.57,2.5-1a3,3,0,0,0-1-2.22.93.93,0,0,1-.08-1.15c.41-.63,1.61-3,.19-3H142v-1.3h4.14s.82.11.26,1.35S145,22.58,145,22.58a1,1,0,0,0,.21,1.13,4.71,4.71,0,0,1,1,2.72c0,1-.91,2.46-4.15,2.13L142,27Z"/><path d="M144,31.57a9.74,9.74,0,0,0,2.09-2.69c.81-1.4.89-4.32.86-5.33v-5h1.56v4.93c0,.14.14,4.06-1.06,6.14A10.38,10.38,0,0,1,144,33.52v-2Z"/><path d="M147.07,31.91A9.46,9.46,0,0,0,153,23.75h-5V22.29h6.42l0,.68a11.09,11.09,0,0,1-7.39,10.51V31.91Z"/><path d="M155.19,33.51c-5.54-2.69-7.07-10-7.14-10.38l1.64-.32c0,.07,1.27,6.18,5.5,8.81v1.89Z"/><polygon points="116.93 44.08 118.04 44.08 114.7 39.34 117.67 36.25 116.41 36.25 112.92 39.88 112.92 36.26 111.91 36.26 111.91 44.09 112.92 44.09 112.92 41.19 114.06 40.01 116.93 44.08 116.93 44.08"/><path class="cls-1" d="M17.58,5.66A5.66,5.66,0,1,1,11.92,0a5.66,5.66,0,0,1,5.66,5.66Z"/><path class="cls-2" d="M30.28,9.22a5.66,5.66,0,1,1-5.66-5.65,5.65,5.65,0,0,1,5.66,5.65Z"/><path class="cls-2" d="M43.33,56.89c-.32-.41-2.12-2.27-2.47-2.6s-.3-.22-.91-.35c-.24,0-.14-.37-.14-.43s.11-.33-.44-.36-.72-.16-.74-.57-.14-.43-.55-.85-3-3.44-3.7-4.4c-.33-.4-.1-.49-.1-.49a.29.29,0,0,1,.33.07c.15.16,1.59,1.39,1.82,1.6a1,1,0,0,0,.77.23c.29,0,.07-.12,0-.25a61,61,0,0,1-4.92-6.38c-2.35-3.57-4.18-6.06-4.47-6.52s-.46-.37-.46-1-.16-.68.26-.82,3-1.48,3.5-2.35c.08-.33-.09-.13-.16-.08s-2.41,2.07-4,2c-.71,0-1.44-1.41-1.44-1.41S24.81,31,25.87,31c.61,0,2.35-.1,2.58-.13s.44,0,.37-.2-.19,0-.14-.54c0-.11,0-.13.15-.13a2.42,2.42,0,0,0,1.22-.22c.39-.24.3-.33.78-.35s.46.08.73-.14a7.12,7.12,0,0,0,2.32-2.89c0-.39-.29.21-.29.21a6.64,6.64,0,0,1-3.93,2.82s-1.06.39-1,.09.06-.14.24-.23,1.49-.8,3.24-3.92a2.18,2.18,0,0,1,.56-.72s.24-.2.18-.78-.18-.19-.16-.54.44-.41.41-.73-.17-.26,0-.59a.76.76,0,0,1,.75-.48c.34,0,1.07.19,1.07,1.35,0,.32.08.32.08.32s.27.29.27-1.76a2.7,2.7,0,0,0-.56-2,1.47,1.47,0,0,1-.32-.51A6.07,6.07,0,0,0,29.32,16c-2.87,0-10.31,0-11.13-.05s-.87-.19-.87-.78a7.69,7.69,0,0,0-.11-1.81.51.51,0,0,0-.47-.35c-.18,0-.88.06-.88,1.61s0,1.64-.41,1.71-.73-.06-.74.43.14.29.17.48a2.74,2.74,0,0,1,0,.5c0,.17-.15.64.4.66s1.29,0,1.29.63.58,5.54.84,7.1a22.64,22.64,0,0,1,.24,3.6c0,.14,0,.32-.29.33s-.44,0-.77.45a2.24,2.24,0,0,1-1.6.9,32.49,32.49,0,0,1-3.67.09s-1.59,0-1.14-1.83A36.28,36.28,0,0,0,11,22.45c-.07-.42-.28,0-.28,0s-.54,1.13-.83,1.71c0,0-.14.26-.11-.35s.44-2.87.52-3.46.63-2.87.74-3.28a2,2,0,0,1,.53-.92c.15-.13.17-.15.17-.41s0-1.55,0-1.77a2.32,2.32,0,0,0,.11-.64c0-.23-.34-.9-1.42-1.07,0,0-.37-.14-.81.52s-1,1.6-1.39,1.74-.09.41-.09.41a1.29,1.29,0,0,1,.06.75,8.25,8.25,0,0,0-.47,2.44,17.88,17.88,0,0,1-1.3,4.64,26,26,0,0,0-1.62,5.94c-.64,3.51-1.16,5.45-1.45,6.82a44.81,44.81,0,0,0-.79,5.16c-.26,2.41-.81,5.34-1,6.82A85.25,85.25,0,0,0,0,60.58S0,61,.09,61s.08-.19.14-.62a101.14,101.14,0,0,1,1.66-11c.22-1.13.46-1.22.46-1.22a.56.56,0,0,0,.15-.65.62.62,0,0,1,0-.76,2,2,0,0,0,.4-1.11,12.29,12.29,0,0,1,.47-2.79c.46-1.41.44-.54.66-1.56s.52-2.46,1.22-2.44.56.61.56.61a.58.58,0,0,0,.11.39.72.72,0,0,1,.11.57c0,.11-.26.19-.24.52s0,1.63.17,1.09.33-.81.48-1.22.24-.74.37-1.17a2.46,2.46,0,0,1,.22-.59c.11-.24,0-.09,0-.48A.63.63,0,0,1,7.31,38c.15-.11.22-.24.24-.67s.09-.44.61-.9a10.9,10.9,0,0,1,5.41-2.93c3-.57,3.77-.79,4.53-.92,0,0,.81,4.28,1.33,6.63a41.12,41.12,0,0,1,.84,4.84c.29,2.12.79,5.86,1.28,8.73s.81,3.86,1.64,7.73c0,0,.22.44.1-.19s-.4-2.3-.49-3.19c0-.12.24-.23.24-.23s.12,0,.08-.5c0-.26-.26-.32-.45-.35s-.11,0-.16-.26a37.08,37.08,0,0,1-.9-6.37s0-.77.13.06a14,14,0,0,0,.49,2c.22.49.07-.2.07-.2s-.52-3.8-.66-5.31-.19-3.82-.26-4.51-.22-.83-.34-1-.18-.35-.2-1.15-.09-.63-.2-.7-.17-.37,0-.41.22,0,.24-.26a2.25,2.25,0,0,0-.06-.91.75.75,0,0,1-.05-.61c.07-.29.05-.4.26-.37l.22,0s.09.86.43,2.57c0,0,.27.63.2-.16s-.24-1.61-.27-2.69c0,0,0-.19.12-.2s.11.09.19.43.42,1.43,1,4.47c.09.37.1-.21.1-.21s-.07-3.49-.07-3.85.2,0,.33.38a47.72,47.72,0,0,0,3.59,6.37,54.18,54.18,0,0,0,7.57,8.2.71.71,0,0,0,.51.13c.18,0,0-.26-.13-.37s-1.28-1.4-1.37-1.56c0,0-.09-.26,0-.26a.67.67,0,0,1,.48.25c.22.22,1,.8,1.23,1.12s.26.28.28.46-.06.26.23.27.29.06.55.27,2.79,2.36,3.21,2.82.52.48.81.53a.56.56,0,0,1,.51.42c.07.23.21.52.43.55s.89-.09,1.06,0,1,1,1.06,1,.39.2.07-.2Zm-21-29.11s-.7.11-.82-.33-.33-.93-.52-1.59-1.26-5.5-1.26-5.5,0-.2-.14-.1a15.91,15.91,0,0,0,.21,2.4,10.93,10.93,0,0,0,.44,2.08c.26.7,0,.61,0,.61a.19.19,0,0,0-.15.26c.07.23.47.36.3.69s-.3.24-.33.12a1.2,1.2,0,0,0-.12-.39,12.23,12.23,0,0,1-.64-2.81c-.16-1.53-.43-1.6-.43-1.6s-.32,0-.39-2.77c0-.35.2-.34.2-.34l1.61,0s.24,0,.26.19.22.29.39,0,.13-.16.39-.18a33.14,33.14,0,0,1,4.88.42c.59.18,0,.19,0,.19h-2c-.24,0-.32.13,0,.26a18.8,18.8,0,0,0,3.15.83c1.35.22,1.86.19,2.38.78s.67.61.67,2a1,1,0,0,1-.27.63,15.91,15.91,0,0,1-7.78,4.16Z"/><path class="cls-2" d="M21.77,39a.33.33,0,0,1,.27.3c0,.26,0,.57,0,.67s-.15.45-.2.06-.14-.77-.15-.93,0-.13,0-.1Z"/><path class="cls-2" d="M23.19,42.33s.19-.12.17.37,0,.54-.06.55-.07-.08-.1-.26a2.67,2.67,0,0,1-.08-.36c0-.33.07-.3.07-.3Z"/><path class="cls-2" d="M5.65,43.82a.11.11,0,0,1,.12.1,1.66,1.66,0,0,1,0,.32c0,.1-.1.06-.13,0s-.11-.06-.1-.21.12-.19.14-.18Z"/><path class="cls-2" d="M26.22,31.41c0,.09.11.08.22.07s.25,0,.25,0-.3-.09-.3-.09-.18,0-.17.06Z"/><path class="cls-2" d="M29.27,31.19s.19,0,.14.19-.34.42-.48.58-.3.22-.24,0,0-.17.21-.31.13-.17.17-.3.06-.18.2-.17Z"/></svg>